<?xml version="1.0" encoding="UTF-8"?> <svg xmlns="http://www.w3.org/2000/svg" xmlns:xlink="http://www.w3.org/1999/xlink" version="1.1" id="Calque_1" x="0px" y="0px" viewBox="0 0 585.3 406.9" style="enable-background:new 0 0 585.3 406.9;" xml:space="preserve"> <style type="text/css"> .st0{fill:#FFFFFF;} </style> <path class="st0" d="M117.3,246.5L94,200.7L18.9,339.8l21.9-2.9l-35,66l91.8-84.3L77,321.4L117.3,246.5z M95.6,298h47.9l-23.3-46 L95.6,298z M265.8,72.3h-24.2V10.9h-33.7v90.5h42.3L265.8,72.3z M141.4,200.4l38.2-71c-14.2-21.5-43.1-27.5-64.7-13.3 c-13.1,8.7-21,23.4-21,39.1C93.9,181,115.6,200.4,141.4,200.4z M200.7,103.1l-77,143.3l22.9,47L223.9,149L200.7,103.1z M202.2,200.4 h47.9l-23.3-46L202.2,200.4z M253.1,195.2l77.8-145.4L307.6,4l-77.4,144.3L253.1,195.2z M357.1,101.3l-23.3-46l-24.6,46H357.1z M227.1,206.1c-25.8,0-46.7,21-46.7,46.8c0,25.8,21.7,45.2,47.5,45.2l38.2-71C257.4,214.1,242.8,206.2,227.1,206.1L227.1,206.1z M290.1,244H284v-36.3h-0.8l-48.7,90.5h49.4v-35.3h6.1v35.3h38.9v-90.5h-38.8L290.1,244z M381.6,206.1c-25.8,0-46.7,21-46.7,46.8 c0,25.8,21,46.7,46.8,46.7s46.6-20.9,46.7-46.7C428.5,227.1,407.5,206.1,381.6,206.1C381.7,206.1,381.7,206.1,381.6,206.1 L381.6,206.1z M480.5,206.1c-25.8,0-46.7,21-46.7,46.8c0,25.8,21.7,45.2,47.5,45.2l38.2-71C510.8,214.1,496.2,206.2,480.5,206.1 L480.5,206.1z M561.2,242.5l15.5-28.8c-8.6-5.3-18.6-8-28.7-7.9c-4.2,0-8.4,0.6-12.5,1.6l0.5,0.3l-23.7,44.1 c2.5,3.6,5.9,6.5,9.9,8.4l-16.6,30.7c10.8,5.3,22.7,8.1,34.8,8.3c19.6,0,39.2-10.7,39.2-32.3C579.7,253.6,572.2,246.3,561.2,242.5z M329.5,145l15.5-28.8c-8.6-5.3-18.6-8-28.7-7.9c-4.2,0-8.4,0.6-12.5,1.6l0.5,0.3l-23.7,44.1c2.5,3.6,5.9,6.5,9.9,8.4l-16.6,30.7 c10.8,5.3,22.7,8.1,34.8,8.3c19.6,0,39.2-10.7,39.2-32.3C348,156.1,340.4,148.8,329.5,145z M413.1,134.7v-24.5h-60.4V200h61.4v-24.5 h-11.6v-7.1h10.3v-26.6h-10.3v-7.1L413.1,134.7L413.1,134.7z"></path> </svg> 